<?xml version="1.0" standalone="no"?>
<!DOCTYPE svg PUBLIC "-//W3C//DTD SVG 20010904//EN"
 "http://www.w3.org/TR/2001/REC-SVG-20010904/DTD/svg10.dtd">
<svg version="1.0" xmlns="http://www.w3.org/2000/svg"
 width="925.000000pt" height="616.000000pt" viewBox="0 0 925.000000 616.000000"
 preserveAspectRatio="xMidYMid meet">
<metadata>
Created by potrace 1.16, written by Peter Selinger 2001-2019
</metadata>
<g transform="translate(0.000000,616.000000) scale(0.100000,-0.100000)"
fill="#000000" stroke="none">
<path d="M1725 6151 c3 -6 -11 -13 -32 -17 -31 -6 -34 -8 -18 -15 19 -6 19 -8
-5 -17 -14 -6 -18 -11 -10 -12 8 -1 4 -6 -10 -11 -18 -7 -21 -12 -11 -18 18
-12 -9 -21 -67 -22 -26 0 -56 -5 -67 -10 -14 -6 6 -8 62 -5 90 4 97 -3 37 -41
l-35 -23 -528 0 c-291 0 -549 -3 -573 -6 l-46 -6 -6 -167 c-15 -383 -26 -814
-22 -818 7 -8 1250 -17 1278 -10 l26 7 7 247 c6 215 10 256 28 308 21 59 125
245 137 245 11 0 3 -792 -8 -821 -20 -50 -31 -51 -829 -44 -405 4 -747 11
-760 16 -44 16 -46 44 -34 329 6 146 13 360 16 475 7 241 9 256 37 281 19 18
50 19 547 22 289 2 539 7 556 12 23 8 11 9 -47 6 -63 -4 -76 -2 -71 10 3 8 -1
14 -11 14 -9 0 -16 -8 -17 -17 0 -11 -3 -13 -6 -5 -3 9 -18 11 -52 6 -32 -4
-63 -1 -94 10 -37 12 -57 14 -98 6 -28 -6 -54 -10 -56 -10 -2 0 -1 -4 2 -10 4
-6 -10 -10 -35 -10 -25 0 -39 4 -35 10 4 6 -7 10 -24 10 -17 0 -31 -5 -31 -11
0 -6 -8 -8 -19 -4 -11 3 -70 6 -130 7 -92 0 -111 3 -111 15 0 12 -14 15 -72
13 -107 -4 -140 -1 -133 10 3 6 34 10 68 11 54 1 58 2 32 10 -16 5 -70 9 -120
8 -134 -4 -173 -1 -155 11 11 7 7 10 -18 10 l-33 0 16 -28 c16 -27 18 -27 88
-21 40 3 81 2 92 -2 17 -7 15 -8 -10 -9 -16 -1 -46 -4 -65 -6 -19 -3 -55 -5
-80 -6 -28 0 -38 -3 -27 -7 17 -6 17 -8 3 -20 -9 -7 -13 -18 -9 -24 4 -7 0 -8
-13 -3 -10 4 -43 10 -72 13 l-52 6 0 -859 c0 -627 3 -855 11 -847 6 6 14 26
18 44 7 36 58 79 93 79 11 0 57 18 101 40 248 122 510 76 713 -125 140 -139
202 -301 191 -499 -9 -162 -65 -292 -179 -411 -249 -264 -655 -260 -909 9
l-39 41 1 -387 c0 -287 4 -388 12 -392 9 -3 9 -5 0 -5 -10 -1 -13 -295 -13
-1356 l0 -1355 229 0 228 0 28 63 c15 34 55 120 87 192 33 72 67 151 75 178
11 38 22 53 56 74 53 34 235 95 259 87 10 -3 18 -1 18 5 0 6 9 11 20 11 11 0
20 4 20 9 0 5 16 12 35 15 25 5 46 21 81 61 45 53 46 56 33 87 -10 24 -10 33
-1 36 20 6 13 21 -18 37 -17 9 -55 15 -94 15 -57 0 -73 -5 -123 -35 -32 -19
-65 -35 -74 -35 -8 0 -21 -6 -28 -12 -16 -15 -14 -5 18 82 17 46 20 80 21 201
0 185 10 285 65 639 60 381 47 340 106 340 l49 0 -6 -79 c-4 -43 -4 -99 0
-124 9 -59 51 -107 94 -107 21 0 31 -6 35 -20 5 -18 8 -19 31 -9 34 16 59 55
48 75 -6 10 0 32 17 66 21 42 25 66 26 142 l1 91 39 -4 c50 -4 116 -29 135
-51 30 -35 152 -97 134 -69 -3 5 -12 9 -20 9 -9 0 -22 7 -30 15 -9 8 -12 15
-8 15 4 0 -1 7 -12 15 -18 14 -18 14 11 15 27 1 28 2 12 14 -15 12 -16 17 -5
41 8 18 9 29 1 33 -25 17 -50 106 -33 117 6 3 10 23 10 43 0 47 31 107 56 107
28 1 40 11 58 49 11 24 24 35 46 39 17 4 30 13 30 21 0 8 16 23 35 32 19 9 35
19 35 23 0 7 26 9 113 11 54 1 103 -9 155 -33 17 -8 29 -8 44 2 11 7 43 13 71
13 64 -1 132 25 114 42 -29 29 -152 28 -476 -4 -68 -6 -95 -5 -146 10 -34 10
-71 23 -83 29 -15 8 -22 8 -25 -2 -3 -7 -6 -5 -6 6 -1 9 -5 17 -11 17 -6 0
-10 26 -10 59 0 53 3 63 31 90 l31 31 191 0 c106 0 504 -5 886 -10 764 -12
738 -9 761 -73 11 -33 14 -255 4 -306 -6 -29 -9 -31 -50 -31 -39 0 -44 -3 -44
-22 -1 -123 -21 -1401 -26 -1665 l-6 -343 46 0 c41 0 46 -2 46 -22 3 -132 -3
-315 -11 -330 -8 -16 -6 -18 19 -18 l29 0 7 418 c4 229 11 725 16 1102 5 377
13 820 16 985 l7 301 -23 10 c-15 7 -24 20 -26 42 l-4 32 82 -5 c45 -3 83 -6
85 -8 2 -2 -27 -7 -63 -10 -72 -7 -80 -10 -69 -26 4 -8 12 -8 25 -1 11 6 31 7
46 4 23 -6 24 -8 10 -16 -14 -8 -15 -12 -4 -25 11 -14 10 -15 -9 -9 l-21 7 18
-70 c16 -61 18 -105 16 -360 -1 -160 0 -291 3 -290 3 0 14 4 25 8 17 7 17 8 2
23 -22 23 -21 25 20 26 53 2 55 12 3 12 -37 1 -41 3 -28 13 9 7 14 17 12 24
-2 6 1 14 7 18 8 5 8 11 -1 21 -9 11 -6 14 17 15 27 0 28 1 7 9 -36 15 -27 27
24 35 39 6 49 4 61 -12 12 -16 10 -18 -13 -21 -14 -2 -23 -7 -20 -12 3 -4 14
-6 25 -3 12 3 20 0 20 -7 0 -7 -6 -10 -13 -7 -8 3 -20 1 -28 -4 -15 -9 -16 -9
31 -14 8 0 28 -5 43 -9 26 -8 26 -9 10 -22 -10 -8 -13 -14 -6 -14 7 0 10 -6 7
-14 -3 -9 4 -16 21 -20 36 -9 22 -26 -23 -27 l-37 -1 35 -10 34 -10 -27 -16
c-33 -20 -35 -32 -4 -32 12 0 28 -4 36 -9 11 -7 4 -11 -25 -16 -21 -4 -50 -10
-64 -15 -48 -17 -88 -21 -95 -11 -3 6 -15 11 -26 11 -22 0 -26 28 -5 36 8 3
12 13 9 25 -4 13 -11 18 -20 15 -8 -3 -17 -6 -19 -6 -2 0 -4 -24 -4 -52 l0
-53 102 3 c79 3 100 1 92 -8 -7 -7 -48 -12 -100 -13 l-89 -2 -6 -70 c-3 -38
-4 -97 -1 -131 l5 -61 43 -1 c24 0 42 4 38 9 -3 5 -12 9 -20 9 -11 0 -12 4 -3
22 7 13 15 30 19 38 4 8 17 17 30 18 12 2 20 -1 16 -6 -3 -6 21 -13 59 -17 46
-5 65 -11 65 -21 0 -17 -5 -17 -30 -4 -29 16 -38 -10 -10 -32 12 -10 18 -18
14 -18 -5 -1 2 -7 16 -15 14 -8 19 -14 11 -15 -12 0 -12 -3 -3 -12 15 -15 16
-48 0 -48 -23 0 2 -13 49 -26 l48 -13 -45 -1 c-66 -3 -70 -4 -71 -15 0 -5 -10
-15 -22 -22 l-22 -12 25 -2 c17 -1 20 -3 8 -6 -25 -6 -22 -24 5 -31 16 -4 4
-9 -43 -18 -36 -6 -67 -9 -70 -5 -3 3 -18 13 -33 21 -16 8 -24 16 -18 18 6 2
11 10 11 18 0 8 8 14 18 14 14 0 15 2 2 10 -8 5 -27 10 -42 10 -15 0 -30 5
-33 10 -4 6 -11 8 -16 5 -12 -8 -12 -235 1 -235 6 0 10 6 10 14 0 22 24 26
146 26 95 0 114 -3 114 -15 0 -8 8 -15 18 -16 10 0 6 -4 -11 -11 -35 -12 -30
-32 9 -36 39 -5 56 -22 22 -22 -15 0 -30 -4 -33 -10 -3 -5 -23 -10 -43 -11
-33 0 -35 -1 -14 -10 13 -5 28 -7 33 -3 5 3 9 -1 9 -10 0 -8 13 -17 31 -21 23
-5 28 -10 20 -18 -21 -21 -12 -37 22 -38 17 0 26 -3 20 -6 -20 -7 -15 -20 9
-26 18 -5 19 -8 8 -21 -11 -14 -9 -16 9 -16 18 0 20 -4 14 -32 -3 -18 -13 -37
-22 -42 -13 -8 -13 -10 4 -17 15 -6 11 -8 -17 -8 -52 -1 -56 -17 -6 -25 45 -7
45 -20 -2 -18 -16 0 -32 -4 -35 -9 -4 -5 9 -9 27 -10 27 0 30 -2 13 -9 -18 -8
-18 -9 5 -10 19 -2 13 -6 -22 -17 -27 -8 -48 -18 -48 -23 0 -5 22 -12 49 -16
64 -8 79 -17 62 -38 -14 -17 -8 -21 33 -16 13 1 17 -3 13 -14 -5 -12 0 -16 16
-16 27 0 72 -29 47 -30 -13 0 -13 -1 0 -10 12 -8 9 -10 -13 -10 -25 0 -27 -2
-13 -15 8 -8 21 -15 28 -15 10 0 9 3 -2 10 -18 11 38 14 89 4 48 -10 37 -24
-21 -26 l-53 -1 45 -4 c73 -5 111 -13 105 -23 -11 -18 17 -21 36 -4 19 17 31
20 111 23 32 1 35 4 30 23 -3 15 -2 19 7 14 6 -4 17 -4 24 1 11 8 47 12 152
17 17 0 35 8 42 16 10 12 15 13 32 2 28 -16 78 -15 88 2 9 16 146 24 426 27
81 0 145 5 142 9 -3 5 5 8 17 8 13 -1 37 0 53 1 30 3 30 3 5 11 -23 7 -21 8
18 15 23 4 42 12 42 16 0 5 12 9 28 8 38 -3 115 11 130 24 7 6 52 12 100 14
85 3 137 17 126 35 -3 4 23 8 58 8 35 0 88 6 118 13 30 8 82 15 115 16 33 1
105 8 159 16 55 8 138 15 186 15 80 0 140 14 140 33 0 4 9 3 20 -3 12 -6 29
-8 39 -5 11 3 65 7 121 9 72 3 106 9 118 19 9 9 28 15 42 16 63 0 369 31 400
40 19 5 73 12 120 15 47 3 119 11 160 16 41 5 120 14 175 19 55 5 107 12 116
16 25 9 92 15 249 20 157 5 233 17 256 40 17 16 94 21 94 6 0 -5 9 -7 20 -4
11 3 20 9 20 14 0 9 65 5 91 -5 9 -4 23 -1 30 7 9 8 47 16 95 20 91 7 166 23
206 43 14 8 39 14 55 14 20 0 24 3 14 9 -10 7 -6 10 16 15 33 8 83 50 83 71 0
11 -6 12 -26 5 -41 -16 -56 -13 -45 7 27 48 29 48 50 29 19 -18 20 -17 50 31
17 26 33 67 37 90 7 48 0 184 -16 288 -9 59 -28 209 -101 780 -5 39 -12 96
-15 128 -5 38 -11 57 -21 57 -10 0 -12 -14 -8 -67 3 -38 8 -79 10 -93 10 -53
75 -663 71 -667 -4 -5 -13 51 -26 177 -5 52 -21 183 -35 290 -14 107 -30 236
-35 285 -6 50 -23 196 -39 325 -16 129 -41 336 -56 460 -14 124 -37 315 -51
425 -40 325 -54 446 -59 510 -4 61 21 -108 70 -465 14 -107 28 -206 30 -220 2
-13 7 -47 11 -75 5 -37 9 -45 14 -30 6 18 -1 100 -29 355 -6 47 -17 146 -25
220 -9 74 -25 209 -36 300 -11 91 -25 210 -32 265 -13 123 -54 214 -78 175 -5
-9 -17 -6 -44 12 -29 18 -35 28 -31 45 4 18 -2 26 -27 40 -27 15 -55 18 -152
17 -72 -1 -113 2 -105 7 9 6 -7 7 -41 4 -30 -3 -58 -9 -63 -14 -6 -6 8 -7 34
-4 24 3 42 3 39 0 -5 -6 -200 -33 -303 -43 -29 -2 -61 -7 -73 -9 -12 -3 -70
-9 -130 -15 -60 -5 -120 -12 -134 -14 -116 -17 -304 -37 -314 -33 -8 3 -18 1
-23 -4 -5 -5 -62 -16 -126 -24 -65 -8 -161 -22 -215 -31 -53 -9 -105 -17 -114
-17 -10 -1 -18 -4 -18 -8 0 -17 68 -17 225 2 300 35 757 90 865 104 131 17
277 29 270 22 -3 -3 -122 -19 -265 -36 -143 -17 -314 -38 -380 -46 -947 -115
-1326 -161 -1495 -180 -74 -9 -164 -20 -200 -25 -36 -5 -220 -27 -410 -49
-460 -54 -595 -70 -723 -87 -59 -8 -124 -14 -145 -13 -30 0 -24 3 32 15 38 8
75 21 82 28 7 8 35 17 61 20 113 16 248 39 253 44 5 5 -25 3 -339 -22 -138
-12 -176 -18 -183 -30 -6 -11 -23 -16 -51 -16 -31 0 -38 3 -27 10 19 13 -56
13 -85 0 -16 -7 -12 -9 20 -10 l40 -2 -35 -8 c-19 -5 -181 -9 -360 -11 -330
-2 -421 -6 -400 -19 8 -5 7 -9 -4 -13 -30 -12 -16 -33 32 -47 42 -13 44 -15
19 -18 -22 -3 -27 -7 -22 -20 15 -36 10 -47 -22 -50 -26 -3 -32 -8 -35 -30 -2
-19 -8 -26 -20 -24 -13 2 -18 -4 -19 -20 0 -13 -3 -17 -6 -10 -2 6 -11 12 -20
12 -10 0 -12 -6 -8 -21 4 -12 3 -19 -2 -16 -4 3 -17 -1 -28 -9 -18 -13 -19
-28 -20 -189 -1 -96 2 -180 7 -187 4 -8 8 6 8 33 0 55 16 67 47 35 14 -14 18
-27 13 -41 -4 -11 -4 -27 1 -35 14 -27 22 -55 20 -67 -1 -7 3 -13 9 -13 6 0 9
-4 5 -9 -3 -5 -1 -12 4 -16 6 -3 8 -12 4 -20 -3 -9 1 -15 8 -15 12 0 12 -2 0
-9 -7 -5 -11 -13 -7 -19 3 -5 -1 -12 -9 -16 -8 -3 -12 -12 -9 -21 4 -10 0 -15
-12 -16 -15 0 -16 -2 -4 -7 17 -8 24 -73 8 -83 -5 -4 2 -9 16 -13 14 -3 26
-13 26 -21 0 -8 7 -15 16 -15 8 0 12 -4 9 -10 -3 -5 0 -10 7 -11 7 0 -7 -8
-32 -17 -40 -15 -45 -21 -48 -51 -2 -20 2 -37 9 -42 9 -5 10 -11 2 -21 -13
-15 5 -48 26 -48 6 0 11 -4 11 -9 0 -5 10 -12 23 -15 19 -6 15 -9 -27 -23 -29
-10 -51 -24 -53 -34 -3 -10 -16 -19 -32 -21 -26 -3 -33 -22 -8 -24 66 -6 64
-5 32 -15 -63 -18 -67 -17 -70 24 -1 21 -7 43 -13 49 -7 7 -10 -18 -11 -84 0
-57 -5 -104 -13 -119 -15 -27 -30 -28 -289 -9 -74 6 -178 11 -230 12 l-94 2
105 6 105 7 -120 1 c-129 2 -798 16 -1298 28 -279 6 -309 9 -329 25 l-21 19
12 311 c6 170 9 315 6 320 -4 5 -25 9 -48 8 l-42 -1 40 -13 c30 -10 34 -13 15
-13 -63 1 -75 10 -76 61 l-1 47 57 0 57 0 1 44 c2 39 -1 45 -20 49 -22 4 -22
4 -2 6 17 1 23 9 27 44 7 50 -12 73 -53 61 -28 -9 -78 -9 -85 -2 -3 3 -3 13 1
22 7 19 30 22 36 4 2 -6 10 -8 16 -4 19 12 6 23 -35 30 -21 4 -47 10 -57 13
-17 5 -18 6 -3 15 29 16 19 35 -28 55 l-45 18 23 17 22 18 -23 6 c-13 4 -21
12 -19 18 5 16 158 8 176 -10 13 -11 11 -13 -10 -12 -13 1 -37 0 -54 -1 l-30
-4 35 -6 c43 -7 53 -37 17 -50 -13 -5 -27 -19 -30 -30 -4 -18 -1 -21 25 -21
36 0 86 -28 94 -52 6 -22 20 -23 27 -4 3 8 0 20 -8 26 -10 8 -11 18 -5 36 8
21 6 26 -13 34 -27 11 -57 35 -57 44 0 4 16 6 36 4 41 -3 59 18 22 25 -22 4
-22 4 -1 6 19 1 22 9 28 76 7 66 2 246 -7 300 -3 19 2 20 157 19 203 -1 823
-12 1065 -19 343 -10 875 -13 915 -6 l40 7 -32 7 c-24 5 -31 11 -27 22 7 16
-31 35 -71 35 -18 0 -22 4 -18 19 4 17 -3 20 -61 26 -36 4 -82 4 -103 0 -32
-6 -35 -5 -24 8 10 13 9 16 -6 20 -12 3 -8 5 10 6 17 1 27 7 27 16 0 8 17 22
38 32 l37 17 -37 4 c-21 2 -38 7 -38 11 0 5 -9 11 -20 14 -11 3 -20 10 -20 15
0 11 21 17 93 27 36 6 47 11 45 24 -3 13 11 17 87 22 151 10 235 21 230 29 -3
4 -35 7 -72 6 -81 -3 -117 7 -53 14 29 3 44 10 42 18 -3 16 14 16 21 -1 3 -8
19 -11 46 -9 22 2 38 8 35 13 -3 5 0 9 5 9 6 0 11 -4 11 -10 0 -5 7 -10 15
-10 8 0 15 4 15 10 0 9 35 17 105 24 26 2 40 8 40 17 0 9 19 16 59 21 96 12
85 22 -24 20 -47 -1 -43 1 25 14 l40 8 -55 6 c-52 6 -50 7 28 8 58 2 82 6 82
15 0 8 -17 11 -62 9 -35 -2 -81 1 -103 7 -39 10 -38 10 22 8 33 -1 59 1 56 6
-2 4 3 7 12 7 9 0 13 5 10 10 -4 6 12 10 40 10 28 0 44 4 40 10 -4 6 11 10 37
10 31 0 39 -3 28 -10 -11 -7 -3 -10 30 -9 32 0 39 3 25 8 -15 6 -11 9 20 14
22 4 69 7 105 7 36 0 72 5 80 10 11 7 -1 10 -39 10 -30 0 -52 3 -48 6 3 4 62
6 131 5 76 -1 127 3 131 9 4 6 -9 11 -32 11 l-38 2 35 7 c34 6 32 9 -10 23 -8
3 -2 6 13 6 16 1 26 5 23 10 -3 5 2 12 12 17 11 5 -8 10 -55 14 -78 7 -94 13
-75 32 9 9 15 9 24 0 7 -7 23 -12 37 -12 l26 1 -25 15 c-25 14 -25 14 12 9 20
-2 51 2 70 9 40 17 107 14 119 -5 5 -8 9 -9 9 -4 0 13 57 35 89 35 21 0 23 3
17 31 -3 17 -6 35 -6 39 0 4 -9 10 -21 13 -12 3 -19 11 -17 18 8 25 27 19 50
-15 13 -20 26 -36 31 -36 8 0 -11 37 -30 58 -16 16 -17 32 -2 32 5 0 7 -4 4
-10 -3 -5 3 -10 14 -10 12 0 21 5 21 10 0 6 5 10 10 10 6 0 5 -9 -2 -21 -10
-17 -10 -23 -1 -26 19 -7 28 -4 28 10 0 7 15 12 40 12 25 0 39 4 38 11 -1 7 7
14 18 17 15 4 19 2 15 -9 -4 -10 3 -14 24 -14 22 0 28 4 24 15 -4 9 0 15 10
15 9 0 16 -7 16 -15 0 -11 11 -15 43 -13 36 1 38 2 10 5 -54 7 -37 23 25 24
31 1 68 3 82 5 14 2 90 6 170 9 80 3 152 7 160 7 36 3 70 -3 70 -11 0 -5 -40
-12 -90 -15 -49 -4 -90 -11 -90 -16 0 -10 29 -22 39 -16 7 5 184 19 254 20 26
1 47 3 47 6 0 3 15 6 34 7 27 2 39 -3 54 -22 18 -22 27 -25 74 -23 29 2 54 -1
56 -7 4 -14 -118 -35 -208 -36 -80 0 -110 -9 -70 -20 l25 -7 -27 -1 c-21 -1
-25 -5 -21 -21 5 -19 6 -19 18 -4 13 19 35 11 35 -12 0 -9 6 -14 13 -11 6 2
11 9 10 15 -2 6 3 9 11 6 8 -3 17 -1 21 5 9 16 65 -15 65 -36 0 -15 2 -15 13
1 10 14 23 17 45 14 22 -3 32 0 32 9 0 7 5 13 10 13 6 0 10 -10 10 -22 1 -20
2 -21 13 -8 13 18 40 15 73 -7 15 -9 34 -12 57 -8 21 4 37 3 41 -4 5 -7 -6
-12 -31 -13 l-38 -1 45 -7 45 -7 -45 -3 -45 -3 45 -7 c25 -4 36 -8 25 -9 l-20
-2 20 -8 c26 -11 60 6 46 22 -6 8 -5 18 4 31 8 10 11 24 8 32 -3 8 0 14 7 14
7 0 10 6 7 14 -3 8 -1 16 5 18 8 3 7 10 -1 26 -33 64 -33 61 -3 69 l27 6 -29
12 -30 12 25 8 c26 8 41 24 33 36 -2 5 -47 6 -99 4 -89 -4 -95 -3 -95 16 0 10
-4 19 -10 19 -5 0 -10 -8 -10 -18 0 -18 -13 -19 -167 -22 -93 -2 -296 -4 -453
-4 -157 -1 -287 -4 -290 -8 -8 -10 -80 2 -80 13 0 5 18 9 40 9 23 0 40 5 40
11 0 7 -10 9 -25 5 -18 -5 -24 -3 -23 6 2 10 -86 13 -435 14 -240 0 -440 4
-444 7 -3 4 5 7 18 8 13 1 33 2 44 3 11 1 41 3 68 4 49 2 64 17 25 25 l-23 4
23 2 c12 0 22 6 22 11 0 7 -59 10 -167 9 -200 -1 -198 -1 -189 9 4 4 40 10 79
14 120 12 148 19 145 36 -3 12 11 16 77 18 44 2 96 -1 115 -5 32 -8 31 -9 -25
-11 -33 -1 -51 -4 -40 -7 11 -3 24 -9 29 -13 5 -5 19 -4 32 2 17 8 27 8 37 0
8 -7 17 -8 23 -3 5 5 20 11 34 14 21 4 20 4 -7 6 -42 1 -43 21 -2 21 19 0 28
4 23 11 -3 6 -17 9 -30 6 -13 -2 -24 0 -24 5 0 4 -46 7 -102 7 -115 -2 -211 8
-202 22 3 5 -3 9 -13 9 -10 0 -26 7 -37 15 -18 13 -17 14 7 20 14 4 36 5 48 3
l24 -5 -25 -11 c-27 -12 -29 -11 31 -16 7 -1 15 9 20 22 8 21 6 22 -49 22 -55
0 -94 12 -76 23 5 2 29 8 54 12 73 11 83 15 70 30 -8 9 -8 14 1 17 8 3 7 9 -4
20 -12 11 -13 18 -4 27 8 8 -4 11 -49 13 -32 1 -74 1 -92 -1 -19 -1 -31 2 -28
7 9 15 -46 22 -161 22 -92 0 -109 -3 -136 -22 -18 -12 -34 -25 -37 -29 -3 -3
-15 -11 -27 -18 -25 -13 -33 2 -10 16 8 4 16 15 19 24 5 13 -2 18 -32 23 -22
3 -356 6 -744 6 -654 -1 -705 -2 -709 -18 -4 -16 -5 -16 -6 1 -1 15 -12 17
-76 17 -61 0 -75 -3 -75 -16 0 -8 -4 -12 -10 -9 -5 3 -15 3 -22 -1 -8 -5 -6
-9 7 -14 12 -4 15 -9 8 -13 -6 -4 -18 0 -26 8 -9 8 -24 15 -34 14 -16 0 -16
-1 2 -8 19 -8 19 -8 -5 -16 -24 -8 -24 -8 -5 -16 12 -4 -3 -6 -38 -4 -63 3
-72 7 -72 33 0 13 -8 16 -35 15 -30 -2 -32 -1 -12 7 35 15 26 20 -39 20 -35 0
-58 -4 -54 -9z m1495 -95 c89 -3 137 0 165 10 22 7 65 13 95 13 l55 -2 -58 -7
c-82 -11 -82 -20 -1 -21 38 0 78 -4 89 -8 33 -13 -40 -22 -125 -16 -72 6 -74
5 -47 -10 15 -9 53 -20 85 -25 l57 -9 -56 3 c-36 1 -76 12 -111 29 -42 21 -61
25 -84 19 -16 -5 -55 -8 -86 -7 -32 0 -58 -3 -58 -7 0 -4 -6 -5 -13 -2 -8 3
-18 -5 -25 -18 l-11 -23 0 22 c-1 24 -17 40 -23 21 -3 -7 -12 -3 -26 12 -13
14 -28 21 -40 18 -11 -3 -26 -2 -33 3 -8 5 -17 3 -21 -4 -6 -9 -11 -7 -19 7
-9 15 -13 16 -20 5 -6 -10 -9 -6 -9 13 0 14 5 28 11 30 7 2 51 -7 98 -19 62
-17 120 -25 211 -27z m-1293 -148 c-7 -19 -61 -82 -127 -148 -63 -63 -135
-139 -160 -169 -25 -29 -49 -59 -55 -65 -34 -40 -66 -112 -95 -213 -13 -46
-27 -83 -32 -83 -11 0 -11 2 17 76 29 77 31 91 10 74 -22 -18 -18 3 5 33 24
30 26 45 5 27 -9 -7 -18 -10 -21 -7 -3 3 6 13 20 22 24 16 39 44 16 30 -5 -3
-10 3 -10 13 0 11 7 23 16 26 15 6 15 4 3 -11 -13 -17 -13 -17 10 -2 14 9 30
24 35 34 6 10 22 30 36 45 23 24 50 64 50 74 0 2 -10 7 -22 11 -20 7 -19 9 12
12 33 4 68 23 42 23 -6 0 -9 7 -6 15 4 9 19 15 35 15 32 0 65 39 55 65 -3 10
1 15 12 16 14 0 14 2 -3 9 -11 5 -15 9 -10 9 6 1 3 6 -5 11 -12 8 -11 10 7 10
36 0 36 18 1 30 l-33 10 36 -4 c19 -2 51 -1 70 3 33 7 33 7 -21 16 l-55 9 65
6 c120 12 110 14 97 -22z m1430 -150 c-4 -51 -10 -157 -13 -236 -7 -143 -19
-190 -44 -166 -14 14 -14 18 -6 184 15 311 13 303 60 309 5 1 6 -39 3 -91z
m-723 -283 c4 -77 7 -162 8 -190 0 -27 6 -75 14 -105 8 -30 14 -68 13 -85 -1
-28 -2 -27 -10 9 -13 54 -21 60 -13 9 3 -23 3 -64 -1 -90 -7 -45 -8 -47 -18
-23 -6 14 -17 29 -24 33 -7 4 -13 25 -13 47 0 36 -2 38 -25 34 -20 -4 -25 0
-25 18 0 12 -7 29 -15 38 -12 14 -12 23 -1 67 8 28 22 62 31 75 l17 23 -5 -23
c-4 -18 -2 -22 9 -18 10 4 14 -3 14 -27 0 -18 4 -38 9 -45 13 -22 21 23 16 98
-2 36 -5 89 -7 117 -2 38 -7 53 -18 53 -11 0 -11 3 -2 12 7 7 12 24 12 39 0
28 18 85 24 78 2 -2 7 -67 10 -144z m1539 -27 c15 -7 27 -16 27 -20 0 -4 12
-14 28 -23 26 -14 25 -15 -43 -13 -131 2 -149 0 -135 -17 10 -12 10 -15 -4
-15 -9 0 -16 7 -16 15 0 10 -10 15 -32 14 l-33 -1 29 -10 c21 -8 25 -13 15
-19 -9 -6 4 -9 35 -9 27 0 46 -3 43 -6 -10 -10 -139 -16 -167 -7 -23 6 -21 7
15 13 38 7 37 7 -20 10 -33 1 -49 5 -35 7 47 8 52 11 40 32 -10 19 -6 20 52
23 42 2 62 7 61 15 -2 8 8 8 33 -3 25 -11 39 -12 48 -5 7 6 16 8 20 4 4 -4 4
0 0 10 -7 20 2 21 39 5z m-1993 -209 c-6 -10 -14 -18 -18 -17 -4 1 -14 -1 -22
-5 -8 -3 -22 -8 -30 -10 -8 -3 -1 -6 15 -7 27 -2 26 -3 -15 -15 -41 -12 -42
-13 -15 -15 l30 -2 -32 -9 c-18 -5 -33 -14 -33 -20 0 -5 -14 -15 -31 -21 -19
-7 -27 -13 -19 -18 7 -4 -2 -10 -22 -15 -26 -6 -29 -9 -13 -12 11 -3 25 -11
31 -18 6 -8 35 -15 67 -17 40 -2 57 -7 57 -17 0 -10 -10 -12 -40 -7 -41 6 -57
-7 -19 -17 12 -3 18 -10 14 -17 -8 -13 -155 -3 -170 12 -6 6 4 8 29 6 27 -2
41 2 44 11 3 10 -4 12 -31 9 -24 -2 -38 1 -41 9 -3 8 2 13 12 13 14 0 15 2 2
10 -8 5 -15 26 -17 47 -1 21 -4 49 -6 63 -9 53 8 66 99 76 71 8 85 7 90 -6 4
-13 7 -12 15 3 7 12 17 15 35 11 18 -5 24 -2 24 11 0 9 5 13 10 10 7 -4 7 -13
0 -26z m-245 -300 c-5 -16 -1 -19 32 -21 21 0 45 -1 53 0 26 2 78 -18 84 -33
3 -9 -1 -15 -9 -15 -7 0 -16 -3 -18 -7 -3 -5 15 -9 39 -11 24 -1 44 2 44 7 0
5 30 11 68 14 74 5 118 14 140 26 12 7 11 10 -6 15 -12 4 -22 12 -22 18 0 6 9
8 23 3 26 -8 23 -8 109 1 l66 7 41 -39 c41 -40 88 -68 131 -78 30 -7 66 -33
57 -42 -3 -4 -52 -7 -109 -7 -57 0 -109 -4 -115 -9 -18 -15 -187 -22 -210 -9
-14 7 -23 7 -30 0 -7 -7 -17 -7 -31 2 -17 11 -31 11 -79 0 -92 -22 -180 -25
-207 -8 -17 12 -26 13 -34 5 -8 -8 -17 -5 -31 13 -11 13 -20 27 -21 30 0 4
-13 9 -30 13 -16 3 -30 10 -30 15 0 6 6 8 14 5 8 -3 17 -1 21 5 3 6 -4 15 -16
20 -23 8 -23 8 -2 19 11 6 23 8 27 5 3 -3 6 3 6 14 0 12 6 23 14 26 9 4 12 14
9 27 -4 16 -2 19 11 14 11 -4 15 -13 11 -25z m6629 -91 c3 -18 17 -125 31
-238 13 -113 36 -299 50 -415 14 -115 30 -248 36 -295 5 -47 23 -193 39 -325
33 -275 98 -810 105 -872 2 -23 14 -113 25 -200 11 -87 29 -232 39 -323 11
-91 34 -280 50 -420 17 -140 31 -260 31 -266 0 -7 -28 -14 -67 -18 -38 -4
-192 -23 -343 -41 -151 -19 -387 -48 -525 -65 -137 -16 -378 -46 -535 -65
-157 -19 -323 -39 -370 -44 -47 -6 -179 -22 -295 -36 -281 -35 -688 -84 -750
-91 -27 -3 -117 -14 -200 -24 -82 -11 -283 -35 -445 -55 -162 -19 -443 -53
-624 -75 -181 -22 -330 -39 -331 -38 -1 2 -12 89 -24 193 -23 198 -76 630
-111 915 -26 208 -84 683 -109 900 -11 91 -36 296 -56 455 -37 304 -104 863
-108 904 -2 25 -1 25 148 43 83 9 206 25 275 33 69 9 233 29 365 45 132 16
337 40 455 54 118 14 285 35 370 46 85 11 290 36 455 56 165 19 428 51 585 70
157 19 393 48 525 64 132 16 373 45 535 65 162 19 396 48 520 64 124 16 230
29 237 30 7 1 14 -14 17 -31z m-7082 -7 c15 -18 15 -20 -13 -31 -16 -7 -35
-10 -43 -7 -8 3 -27 2 -43 -3 -15 -4 -21 -9 -13 -10 8 -1 2 -8 -15 -15 -45
-21 -2 -19 58 2 57 20 75 10 54 -30 -12 -23 -16 -24 -28 -12 -12 12 -26 13
-74 5 -49 -8 -61 -7 -67 5 -7 12 -14 12 -36 2 -15 -6 -29 -14 -32 -18 -9 -11
-129 -19 -135 -9 -3 6 -19 10 -35 10 -34 0 -60 9 -60 21 0 5 8 9 19 9 10 0 21
9 24 20 4 15 0 20 -14 20 -12 0 -16 -5 -13 -15 5 -11 -1 -15 -25 -15 -33 0
-42 16 -13 23 13 4 11 5 -5 6 -13 0 -23 -3 -23 -9 0 -14 -28 -12 -33 3 -3 9
-7 9 -20 -2 -15 -12 -17 -11 -17 3 0 16 48 23 124 18 16 -1 34 1 40 6 12 9 81
16 159 15 26 0 47 4 47 8 0 21 30 7 31 -13 1 -16 3 -18 6 -7 3 13 15 16 55 14
28 -1 65 3 82 11 40 17 39 17 58 -5z m2452 -1546 c3 -27 13 -104 21 -170 37
-288 45 -363 40 -410 -3 -39 -2 -43 4 -20 8 29 9 28 12 -15 1 -25 2 -72 0
-105 -1 -44 1 -56 8 -45 9 12 11 10 10 -10 0 -14 9 -97 20 -185 11 -88 38
-304 60 -480 71 -563 82 -665 79 -683 -2 -9 -16 84 -31 208 -45 369 -60 470
-68 465 -16 -11 -41 135 -74 440 -14 127 -32 282 -40 345 -37 290 -75 621 -75
654 0 22 4 35 10 31 6 -3 10 4 10 16 0 37 7 18 14 -36z m-2564 -857 c0 -5 -5
-19 -12 -31 -17 -31 -17 -59 -1 -75 7 -7 14 -32 14 -55 3 -87 -7 -107 -46 -99
-29 5 -40 44 -33 117 4 33 2 45 -9 45 -7 0 -13 7 -13 16 0 10 6 14 15 10 9 -3
15 0 15 8 0 8 -7 17 -16 20 -8 3 -12 11 -9 16 5 7 11 8 19 1 8 -7 17 -2 31 19
17 26 45 31 45 8z m7209 -1142 c-4 -4 -312 -43 -769 -97 -91 -11 -210 -26
-264 -34 -55 -8 -103 -15 -108 -15 -5 0 -7 -4 -4 -9 4 -5 -4 -7 -16 -3 -14 3
-19 2 -14 -6 4 -7 1 -12 -7 -12 -8 0 -17 6 -20 13 -4 11 -60 7 -299 -24 -325
-42 -350 -46 -358 -59 -9 -14 -86 -27 -360 -60 -140 -17 -309 -37 -375 -45
-66 -8 -178 -21 -250 -29 -71 -8 -174 -20 -227 -26 -95 -11 -152 -4 -98 11 14
4 -11 6 -55 4 l-80 -4 85 14 c47 8 122 16 166 17 45 2 80 6 77 11 -2 4 6 7 19
7 13 0 77 7 143 15 66 8 217 26 335 40 118 13 319 38 445 54 127 16 370 46
540 66 171 20 378 44 460 55 83 10 211 26 285 35 74 8 205 24 290 36 357 46
472 57 459 45z"/>
<path d="M8036 4458 c-8 -18 -27 -64 -42 -103 -15 -38 -32 -76 -37 -82 -6 -9
-5 -13 2 -13 7 0 51 38 99 85 l87 85 -33 30 c-41 38 -59 38 -76 -2z"/>
<path d="M7757 4433 c-14 -16 -38 -54 -53 -87 -23 -50 -26 -67 -21 -123 3 -36
9 -69 14 -74 8 -8 226 71 245 89 4 4 -24 51 -62 104 -39 53 -70 102 -70 108 0
19 -26 10 -53 -17z"/>
<path d="M8118 4367 c-49 -46 -88 -85 -88 -88 0 -3 48 1 108 7 59 7 113 13
121 14 10 0 12 9 6 38 -7 37 -44 112 -54 112 -3 -1 -45 -38 -93 -83z"/>
<path d="M6927 3713 c-15 -4 -18 -11 -13 -36 3 -18 15 -115 26 -217 26 -231
26 -234 57 -270 20 -25 32 -30 66 -30 23 0 48 4 55 9 19 11 5 61 -24 86 -21
18 -25 40 -48 231 -14 116 -26 216 -26 222 0 12 -55 15 -93 5z"/>
<path d="M7973 3681 c-71 -18 -122 -83 -109 -137 10 -39 53 -80 98 -93 84 -24
98 -32 98 -57 0 -37 -41 -49 -98 -29 -25 8 -46 14 -47 12 -1 -1 -9 -13 -18
-27 -9 -13 -17 -29 -17 -36 0 -28 115 -51 177 -35 57 16 91 46 103 92 9 33 8
46 -7 77 -19 39 -55 62 -133 84 -38 11 -45 17 -45 38 0 24 2 25 63 25 57 0 65
2 77 25 19 34 19 36 -12 48 -42 17 -94 22 -130 13z"/>
<path d="M7620 3634 c-50 -22 -79 -52 -86 -91 -13 -67 31 -118 121 -142 57
-15 79 -33 71 -58 -10 -33 -60 -36 -127 -8 -12 4 -22 -4 -37 -29 l-21 -36 27
-14 c111 -56 262 1 262 99 0 72 -35 106 -142 135 -50 13 -66 33 -46 57 10 12
26 14 69 9 56 -5 57 -5 69 25 15 35 9 42 -50 59 -47 13 -68 12 -110 -6z"/>
<path d="M7240 3582 c-111 -55 -133 -235 -41 -332 61 -64 139 -74 235 -31 50
22 55 34 27 70 -17 22 -19 23 -49 7 -43 -22 -94 -20 -126 5 -30 23 -35 59 -8
60 9 0 58 6 107 13 l90 11 -2 48 c-4 131 -120 205 -233 149z"/>
<path d="M6812 3535 c-18 -8 -40 -28 -50 -45 -22 -38 -29 -38 -37 1 -7 30 -9
31 -47 26 -22 -3 -41 -7 -43 -9 -5 -4 41 -377 46 -383 2 -2 25 -1 52 2 45 5
47 7 47 37 0 17 -5 69 -11 115 -7 63 -7 92 2 113 13 31 54 58 89 58 19 0 21 5
18 47 -3 54 -15 61 -66 38z"/>
<path d="M6335 3471 c-82 -50 -114 -147 -84 -254 23 -82 116 -145 199 -134 48
6 130 44 130 60 -1 7 -9 22 -20 35 -18 22 -21 22 -49 8 -49 -26 -98 -21 -132
13 -16 16 -29 34 -29 39 0 6 30 14 68 18 37 3 87 10 112 13 l45 7 -2 47 c-4
61 -35 122 -76 147 -42 26 -121 26 -162 1z"/>
<path d="M5050 3446 c-82 -11 -85 -12 -83 -36 1 -14 9 -77 17 -140 8 -63 20
-168 27 -233 l13 -119 29 6 c16 3 41 6 54 6 l25 0 -7 89 -7 89 43 7 c65 10
111 25 139 47 59 46 76 137 40 216 -35 77 -103 93 -290 68z m180 -96 c13 -13
20 -33 20 -58 0 -52 -30 -79 -96 -87 l-51 -7 -6 38 c-4 22 -7 58 -7 81 0 46 5
49 83 52 25 1 43 -5 57 -19z"/>
<path d="M5968 3430 c-20 -11 -40 -24 -43 -30 -10 -15 -25 -12 -25 6 0 13 -7
15 -42 9 -24 -4 -45 -9 -47 -11 -2 -2 6 -85 18 -186 33 -272 41 -329 45 -337
3 -4 26 -5 53 -2 54 7 55 8 39 123 l-8 56 40 -13 c109 -38 205 71 188 215 -17
146 -118 224 -218 170z m75 -97 c8 -10 21 -40 28 -66 23 -92 -18 -158 -87
-141 -30 8 -39 28 -48 113 -7 57 -5 66 15 87 27 28 69 31 92 7z"/>
<path d="M5485 3366 c-81 -40 -80 -39 -59 -75 22 -37 23 -37 74 -11 51 26 85
25 104 -2 19 -27 15 -31 -53 -53 -112 -37 -159 -121 -109 -195 45 -66 117 -75
179 -22 28 23 31 23 43 7 10 -14 21 -16 55 -10 39 6 42 9 37 33 -3 15 -11 70
-16 122 -14 122 -26 163 -61 196 -42 40 -125 44 -194 10z"/>
<path d="M6449 2930 c-70 -21 -99 -64 -99 -146 0 -36 -3 -44 -19 -44 -10 0
-39 -3 -65 -6 -46 -7 -46 -7 -46 23 0 36 16 53 52 53 29 0 44 27 36 67 -5 25
-60 29 -115 8 -56 -22 -83 -63 -83 -127 0 -41 -3 -48 -19 -48 -27 0 -34 -15
-26 -57 5 -31 9 -34 30 -29 27 7 26 10 45 -149 18 -151 15 -145 66 -145 31 0
46 5 51 16 5 14 -10 185 -23 261 -6 31 -5 32 43 38 95 14 85 27 104 -134 10
-79 21 -146 24 -149 8 -8 88 -2 98 7 4 5 1 64 -8 132 -8 68 -16 133 -18 144
-1 14 7 22 31 28 24 8 32 16 32 33 0 42 -11 54 -46 54 -32 0 -34 2 -34 35 0
36 20 55 59 55 18 0 21 6 21 39 0 50 -25 61 -91 41z"/>
<path d="M7240 2854 c-76 -33 -110 -91 -110 -189 0 -96 42 -167 113 -194 47
-18 128 -13 172 10 57 30 59 33 33 63 -23 27 -23 27 -67 12 -49 -18 -86 -13
-118 17 -19 17 -31 45 -20 48 1 0 49 6 105 14 57 7 107 17 112 21 13 13 -7
102 -31 141 -24 38 -84 73 -126 73 -15 -1 -44 -8 -63 -16z"/>
<path d="M6895 2802 c-66 -36 -97 -91 -97 -171 0 -98 57 -189 128 -207 46 -12
129 1 162 25 18 12 32 25 32 29 0 4 -11 20 -23 36 -23 28 -25 29 -48 13 -66
-47 -139 7 -139 102 0 77 44 121 107 107 26 -6 31 -3 46 29 l17 35 -30 15
c-44 23 -98 18 -155 -13z"/>
<path d="M6606 2773 c-15 -4 -17 -11 -12 -41 3 -21 13 -104 22 -187 9 -82 19
-153 23 -156 3 -4 29 -4 56 0 42 5 50 9 48 26 -2 21 -30 251 -39 323 -5 41 -6
42 -42 41 -20 -1 -45 -3 -56 -6z"/>
<path d="M5781 2672 c-19 -9 -48 -34 -65 -55 -27 -34 -31 -48 -34 -112 -4 -64
-1 -79 22 -122 38 -70 84 -98 161 -98 79 0 125 29 160 99 86 171 -83 371 -244
288z m104 -78 c38 -15 62 -116 42 -174 -14 -40 -56 -61 -85 -44 -50 31 -71
160 -32 202 21 22 45 27 75 16z"/>
<path d="M8380 2223 c-94 -14 -90 -12 -84 -41 3 -15 15 -117 28 -227 21 -185
24 -200 42 -198 10 1 41 5 68 8 l49 7 -7 61 c-18 179 -51 397 -61 396 -5 -1
-21 -3 -35 -6z"/>
<path d="M6620 2053 c-8 -3 -17 -9 -20 -13 -3 -4 -27 -20 -54 -35 -46 -27 -49
-28 -62 -10 -9 11 -27 18 -54 19 -34 1 -40 4 -36 18 2 10 0 16 -5 12 -5 -3 -9
-15 -9 -27 0 -15 -14 -31 -48 -52 -26 -16 -75 -51 -110 -77 -35 -27 -65 -48
-66 -48 -2 0 -25 21 -51 46 -40 38 -52 44 -74 39 -14 -4 -28 -11 -30 -17 -2
-6 -51 -62 -110 -126 -58 -63 -123 -134 -143 -156 l-37 -41 -73 37 c-40 21
-89 47 -107 58 -31 17 -37 18 -51 5 -9 -8 -22 -15 -28 -15 -6 0 -12 -6 -14
-14 -3 -16 -155 -176 -166 -176 -20 1 -102 72 -102 89 0 10 -8 25 -17 32 -15
11 -16 11 -5 -1 20 -23 16 -43 -7 -30 -14 7 -22 7 -27 -1 -3 -6 -15 -8 -25 -6
-12 3 -18 1 -17 -7 2 -7 -46 -54 -107 -103 -155 -128 -201 -170 -193 -178 4
-5 27 9 50 29 24 20 93 77 153 126 61 50 117 97 126 105 19 18 26 18 42 5 7
-6 40 -28 74 -50 l62 -39 92 95 c51 52 101 94 111 94 11 0 15 5 12 15 -4 8 -1
15 5 15 6 0 11 -4 11 -10 0 -5 3 -9 8 -8 4 2 49 -19 101 -46 l95 -49 39 44
c22 24 96 104 165 178 108 115 127 131 137 117 7 -9 17 -16 22 -16 5 0 22 -13
36 -30 15 -16 32 -30 37 -30 5 0 58 33 117 74 l108 73 70 -3 c59 -2 76 2 112
23 29 17 52 23 75 20 18 -2 25 -2 16 0 -20 5 -23 18 -8 28 12 7 14 25 3 24 -5
0 -15 -3 -23 -6z"/>
<path d="M7786 2049 c-32 -5 -60 -10 -61 -11 -2 -2 1 -28 6 -58 5 -30 14 -107
20 -170 6 -63 13 -118 17 -122 7 -6 117 8 132 17 5 3 -9 125 -40 353 0 1 -3 1
-7 1 -5 -1 -35 -5 -67 -10z"/>
<path d="M7963 1983 c-38 -5 -40 -16 -23 -138 19 -140 17 -135 53 -135 18 0
49 3 70 7 l39 6 -6 41 c-3 23 -10 83 -17 134 l-12 92 -36 -2 c-20 0 -51 -3
-68 -5z"/>
<path d="M6213 6153 c-13 -2 -23 -9 -23 -15 0 -5 7 -8 15 -5 8 4 17 2 20 -2 5
-9 -115 -27 -153 -23 -12 2 -25 -4 -28 -11 -3 -9 -13 -13 -25 -10 -11 3 -19 0
-19 -7 0 -9 17 -11 68 -6 37 4 114 7 172 7 109 0 150 5 150 19 0 5 -13 11 -30
15 -31 7 -42 25 -15 25 8 0 15 5 15 10 0 10 -101 12 -147 3z"/>
<path d="M6080 6019 c-197 -13 -182 -17 43 -12 121 3 207 2 207 -4 0 -8 -26
-10 -210 -17 -36 -1 -76 -4 -90 -5 -23 -2 -23 -3 -5 -11 11 -4 75 -6 143 -3
67 3 178 6 247 7 147 1 171 20 27 22 -51 1 -95 4 -99 7 -3 4 34 7 83 7 61 0
84 3 74 10 -18 11 -241 11 -420 -1z"/>
<path d="M7967 5999 c-33 -9 -69 -28 -92 -50 -11 -11 -32 -28 -46 -39 -26 -19
-45 -70 -27 -70 5 0 6 -4 3 -10 -3 -5 1 -10 9 -10 17 0 56 34 56 50 0 9 62 30
93 30 9 0 17 5 17 11 0 6 -9 8 -22 4 -23 -7 -23 -7 -3 9 11 8 35 18 53 22 39
8 41 21 5 31 -25 7 -22 9 22 13 l50 6 -47 4 c-27 3 -58 2 -71 -1z"/>
<path d="M7570 5991 c24 -7 24 -8 -10 -15 -19 -5 -39 -8 -43 -7 -5 1 -6 -8 -2
-19 4 -11 3 -20 -2 -19 -27 5 -43 -3 -43 -20 0 -11 -12 -27 -27 -36 -22 -13
-28 -25 -30 -56 -2 -28 1 -39 11 -39 25 0 46 12 46 26 0 8 21 24 46 35 28 14
41 25 34 29 -16 10 -3 16 50 25 62 9 81 15 76 24 -9 14 9 28 49 39 l40 10 -42
1 c-25 1 -43 6 -43 12 0 8 18 10 55 7 30 -3 55 -1 55 4 0 4 -55 8 -122 7 -68
-1 -112 -4 -98 -8z"/>
<path d="M9074 5940 c-12 -5 -55 -12 -95 -17 l-74 -8 55 -5 c56 -5 71 -22 25
-28 -26 -3 -36 -22 -11 -22 8 0 16 -5 18 -11 8 -23 228 -11 228 12 0 5 7 9 15
9 24 0 17 28 -7 33 l-23 4 23 2 c15 1 22 7 22 21 0 18 -6 20 -77 19 -43 0 -88
-4 -99 -9z"/>
<path d="M9038 5812 c-38 -2 -68 -7 -68 -13 0 -6 -4 -8 -9 -4 -16 9 -20 -9 -6
-28 11 -15 29 -17 154 -15 l141 3 0 31 0 31 -72 -1 c-40 -1 -103 -2 -140 -4z"/>
<path d="M6637 5703 c-4 -4 -81 -9 -170 -12 -97 -4 -162 -10 -162 -16 0 -5 -4
-16 -8 -22 -5 -7 -6 -17 -3 -22 4 -5 0 -11 -6 -14 -7 -3 2 -11 21 -19 27 -12
30 -16 16 -22 -14 -5 -16 -14 -12 -48 3 -22 11 -44 18 -48 6 -4 9 -13 5 -19
-4 -6 4 -13 18 -17 14 -3 28 -15 31 -25 4 -11 16 -19 28 -20 21 0 21 -1 2 -8
l-20 -8 20 -6 c32 -9 93 -12 101 -4 11 11 56 8 49 -3 -3 -5 1 -10 9 -10 9 0
16 5 16 11 0 7 12 9 32 7 34 -5 51 5 62 37 7 24 70 46 110 38 24 -5 28 -3 23
11 -5 13 1 16 37 16 39 0 44 2 39 20 -4 14 0 20 11 20 10 0 14 5 11 10 -3 6 3
10 13 10 11 0 25 7 32 15 17 21 47 19 53 -4 3 -14 -2 -21 -17 -25 l-21 -5 21
-22 c18 -17 20 -25 10 -45 -6 -13 -19 -24 -28 -24 -10 0 -18 -4 -18 -10 0 -5
5 -10 10 -10 6 0 10 -7 10 -15 0 -8 4 -15 8 -15 15 0 32 24 32 46 0 14 8 25
19 29 30 9 44 31 33 51 -7 13 -6 24 4 40 14 20 17 21 53 8 24 -8 70 -11 132
-9 52 3 160 5 242 5 129 0 147 2 147 16 0 11 -6 15 -19 11 -10 -2 -25 -1 -32
4 -10 6 -7 10 11 18 22 8 22 10 5 11 -46 1 12 20 64 20 43 0 52 -3 47 -15 -3
-9 0 -15 9 -15 8 0 15 4 15 10 0 5 7 7 15 4 8 -4 15 -1 15 5 0 6 10 11 23 11
13 0 17 3 10 8 -10 7 -444 6 -561 -1 -29 -2 -55 0 -58 4 -2 4 -43 5 -90 3 -51
-3 -83 -1 -80 5 3 5 14 7 24 5 24 -6 46 11 39 30 -5 13 -14 16 -41 11 -18 -4
-36 -3 -40 3 -3 5 -30 7 -63 3 -74 -8 -229 -6 -268 3 -17 4 -34 3 -38 -1z"/>
<path d="M9055 5698 c-38 -3 -140 -9 -225 -13 -160 -7 -208 -14 -104 -16 45
-1 53 -3 34 -9 -22 -7 -21 -8 13 -9 23 -1 36 3 32 9 -4 6 18 10 57 11 35 0 86
2 115 4 51 4 52 4 35 -15 -14 -17 -30 -20 -112 -21 -137 -1 -172 -15 -88 -33
22 -5 26 -3 22 9 -8 20 20 20 37 -1 9 -11 23 -14 49 -10 42 7 75 -8 41 -19
-12 -4 -20 -12 -18 -18 5 -16 90 -32 95 -18 2 6 8 11 13 11 6 0 7 -5 4 -10 -4
-6 -1 -18 6 -26 10 -12 8 -17 -7 -29 -19 -13 -19 -14 1 -29 11 -8 31 -16 45
-17 23 -1 125 -1 143 0 4 1 7 59 7 130 l0 129 -62 -1 c-35 -1 -94 -5 -133 -9z"/>
<path d="M5054 5559 c-3 -5 -10 -7 -15 -4 -17 11 -31 -6 -18 -21 9 -11 8 -14
-4 -14 -9 0 -19 5 -23 11 -3 6 -15 9 -25 6 -11 -3 -26 1 -33 9 -19 18 -46 18
-46 -1 0 -8 5 -15 10 -15 6 0 10 -5 10 -11 0 -7 -9 -9 -21 -6 -15 4 -19 2 -15
-10 3 -8 6 -17 6 -19 0 -2 9 -4 21 -4 11 0 17 5 14 10 -3 6 3 10 14 10 13 0
18 -5 15 -13 -4 -10 6 -13 38 -12 100 4 101 4 95 25 -3 11 -2 20 3 20 12 0 31
-26 23 -33 -8 -9 60 -9 81 -1 9 3 16 10 16 15 0 13 -37 11 -45 -2 -5 -6 -12
-4 -20 8 -16 22 -11 33 13 26 10 -2 24 3 31 11 15 18 18 17 -66 22 -29 1 -55
-2 -59 -7z"/>
<path d="M8120 5140 c-56 -5 -64 -7 -30 -8 25 -1 52 -7 60 -12 15 -10 -63 -16
-137 -11 -18 1 -40 -2 -50 -8 -21 -12 20 -14 312 -11 197 1 259 6 250 21 -3 4
-13 6 -23 3 -15 -5 -15 -4 1 9 25 20 14 23 -68 16 l-70 -5 60 -2 c38 -2 55 -5
46 -11 -19 -13 -304 -13 -296 -1 3 6 15 10 26 10 11 0 17 5 14 10 -3 6 -9 9
-13 8 -4 -1 -41 -4 -82 -8z"/>
<path d="M6810 4859 c-41 -5 -102 -14 -135 -19 -61 -11 -368 -42 -395 -41 -8
1 -48 4 -87 7 -40 3 -81 3 -90 -1 -10 -5 -21 -7 -25 -7 -5 1 -8 -2 -8 -8 0 -5
8 -11 18 -11 33 -2 -63 -17 -157 -25 -70 -5 -92 -4 -87 5 4 6 18 11 32 11 13
0 24 5 24 11 0 18 -282 6 -309 -13 -12 -8 -18 -18 -14 -21 3 -4 -9 -6 -28 -6
-23 1 -27 3 -11 6 12 2 22 11 22 19 0 12 -12 15 -64 12 -35 -2 -62 -6 -60 -10
2 -3 -2 -9 -8 -11 -7 -3 -2 -6 12 -7 46 -3 -144 -28 -265 -35 -66 -3 -136 -8
-155 -10 -19 -2 -93 -5 -165 -6 -71 -1 -150 -4 -175 -7 -43 -5 -43 -6 -15 -13
l30 -7 -27 -1 c-16 0 -28 -5 -28 -11 0 -13 47 -13 55 0 4 6 23 10 43 10 69 -2
327 10 436 20 104 10 285 12 259 3 -16 -6 -17 -43 -2 -43 12 0 713 83 879 105
63 8 194 24 290 35 341 41 341 41 338 59 -4 20 -29 22 -128 10z"/>
<path d="M213 4269 c-60 -11 -119 -44 -169 -95 l-45 -44 2 -197 2 -197 51 -51
c179 -180 467 -91 532 164 59 233 -146 464 -373 420z m22 -92 c-48 -19 -113
-65 -126 -89 -9 -17 -1 -13 29 14 45 40 81 51 156 46 62 -4 72 -23 13 -24 -30
-1 -51 -8 -64 -21 -27 -27 -15 -50 16 -34 17 9 21 9 19 -1 -2 -7 4 -11 12 -9
8 2 24 4 35 4 11 1 22 4 25 9 4 4 20 11 38 14 28 6 32 4 38 -22 4 -16 16 -36
27 -44 28 -23 15 -56 -28 -70 -38 -13 -59 -55 -34 -70 10 -7 10 -11 0 -24 -25
-30 12 -18 48 16 l34 32 -6 -33 c-10 -49 -41 -87 -93 -111 -121 -59 -267 24
-293 166 -5 25 -11 48 -15 51 -10 11 -7 -74 5 -104 15 -40 97 -121 137 -134
48 -16 147 -14 185 4 38 19 82 63 96 97 7 19 10 21 10 7 2 -38 -64 -113 -122
-139 -54 -26 -177 -23 -161 3 3 5 -2 6 -11 3 -20 -8 -86 36 -120 80 -29 38
-55 112 -55 156 0 61 31 132 79 180 48 48 67 57 126 58 l30 0 -30 -11z"/>
<path d="M2461 2636 c13 -14 46 -16 270 -16 260 0 387 5 397 15 3 3 -40 5 -95
5 -55 0 -210 3 -344 6 -226 6 -243 5 -228 -10z"/>
<path d="M2464 2568 c-4 -13 -27 -44 -53 -71 -49 -51 -110 -77 -183 -77 -33 0
-38 -3 -38 -24 0 -13 6 -29 13 -35 11 -8 17 -5 27 15 11 20 19 24 40 19 14 -4
33 -14 42 -22 12 -11 22 -13 30 -6 16 12 56 10 83 -4 11 -6 34 -13 50 -16 55
-9 150 -36 182 -52 33 -16 34 -23 10 -73 -6 -12 -17 -20 -24 -18 -7 3 -15 1
-18 -4 -4 -6 -22 -10 -41 -10 -21 0 -33 -4 -29 -10 4 -6 -1 -7 -12 -2 -34 13
-60 37 -82 72 -22 37 -25 32 -22 -35 3 -54 -22 -85 -69 -86 -44 -1 -140 22
-140 34 0 4 -4 6 -9 3 -5 -3 -4 12 1 34 6 22 7 48 3 57 -5 14 -9 10 -20 -21
-21 -59 -105 -137 -105 -96 0 6 7 10 15 10 13 0 65 76 65 96 0 5 -17 -10 -38
-34 -20 -23 -46 -44 -58 -47 -34 -6 -124 -56 -118 -66 7 -12 34 -11 34 1 0 6
10 10 23 10 16 0 18 -3 8 -9 -9 -6 -10 -11 -2 -15 11 -7 1 -21 -57 -82 -25
-26 -31 -38 -23 -48 12 -15 0 -34 -37 -58 -22 -15 -22 -15 25 -28 27 -7 78
-21 114 -31 36 -11 76 -19 87 -19 11 0 23 -4 26 -9 3 -5 22 -12 41 -15 19 -4
35 -9 35 -12 0 -3 -13 -19 -30 -36 -16 -16 -30 -36 -30 -43 0 -27 94 -96 150
-110 22 -5 25 -3 27 24 3 44 19 68 63 96 50 31 54 31 46 -1 -5 -19 -2 -30 11
-39 17 -12 16 -14 -7 -34 l-25 -21 43 15 c46 16 89 43 127 81 13 13 31 24 39
24 9 0 21 9 28 20 7 11 19 20 26 20 7 0 15 6 18 13 8 22 34 16 34 -9 0 -85
-130 -685 -251 -1159 -11 -44 -29 -116 -40 -160 -11 -44 -28 -114 -39 -155
-21 -84 -70 -296 -70 -304 0 -3 39 -5 88 -4 48 1 70 3 50 5 -40 4 -46 16 -24
46 7 9 12 28 11 42 -2 14 1 25 7 25 6 0 8 6 5 14 -5 11 7 16 50 22 l57 7 -35
18 c-69 35 -65 44 19 44 l77 0 6 120 c10 195 11 211 16 187 4 -20 10 -22 74
-22 l69 0 0 69 0 69 -62 10 -63 9 61 2 62 1 4 63 c3 34 3 68 0 75 -2 6 -21 13
-41 13 -34 2 -34 2 -6 6 47 7 55 20 55 84 0 47 -4 61 -20 72 l-21 14 21 6 c18
5 20 13 20 76 0 60 -3 71 -17 71 -15 0 -14 2 3 14 15 12 19 28 20 88 3 138 -6
123 76 123 l73 0 3 66 c3 73 0 76 -73 80 -19 2 -12 4 19 8 46 6 50 8 58 39 5
19 8 50 6 70 -3 34 -6 38 -38 43 l-35 5 35 10 35 10 0 69 c0 65 -1 69 -25 76
l-25 7 28 1 c26 1 27 3 27 56 0 53 11 72 24 40 4 -11 21 -15 65 -15 33 0 63 4
66 10 3 5 6 73 7 151 1 161 2 159 -79 159 -39 0 -55 -4 -62 -17 -8 -14 -10 -5
-11 39 0 35 -5 58 -12 61 -10 4 -10 6 0 6 9 1 12 31 12 115 l0 114 -57 4 c-32
3 -64 3 -70 1 -8 -3 -13 -27 -14 -62 l-1 -56 -8 49 c-14 78 -12 77 -82 74
l-63 -3 -6 -55 -5 -55 -5 55 -4 55 -67 3 -67 3 -10 -33 -9 -33 -1 33 c-1 31
-3 32 -40 32 -32 0 -41 -4 -47 -22z"/>
<path d="M3042 2508 l3 -73 53 -3 c68 -4 82 8 82 68 0 77 -3 80 -77 80 l-64 0
3 -72z"/>
<path d="M3034 2406 c-3 -7 -4 -40 -2 -72 l3 -59 68 -3 c64 -3 67 -2 68 20 2
38 -2 112 -7 120 -9 14 -124 9 -130 -6z"/>
<path d="M3036 1923 c-3 -4 -6 -37 -6 -75 l0 -68 64 0 63 0 7 61 c4 34 4 65
-1 69 -10 10 -119 20 -127 13z"/>
<path d="M3030 1691 l0 -70 33 -6 c19 -4 47 -5 63 -3 29 3 29 3 29 73 l0 70
-62 3 -63 3 0 -70z"/>
<path d="M3033 1585 c-10 -8 -13 -28 -11 -70 l3 -60 65 0 65 0 3 67 3 66 -57
4 c-31 1 -63 -2 -71 -7z"/>
<path d="M3027 1424 c-4 -4 -7 -35 -7 -69 l0 -62 62 -6 c43 -4 65 -2 70 6 5 7
7 39 6 72 l-3 60 -60 3 c-34 2 -64 0 -68 -4z"/>
<path d="M2860 1281 c0 -80 6 -85 91 -79 l44 3 0 70 0 70 -67 3 -68 3 0 -70z"/>
<path d="M3032 1261 c-9 -5 -12 -27 -10 -72 l3 -64 61 -3 61 -3 7 63 c3 34 3
65 -1 69 -13 11 -107 19 -121 10z"/>
<path d="M1687 1196 c3 -14 -1 -25 -9 -28 -7 -3 -83 5 -168 18 -188 28 -201
28 -194 10 3 -9 35 -18 87 -25 45 -7 108 -17 140 -23 53 -10 57 -13 57 -38 0
-15 -2 -29 -5 -32 -3 -2 -31 -1 -62 4 -32 4 -92 13 -133 18 -41 6 -82 13 -92
16 -13 4 -16 1 -12 -10 3 -9 23 -17 47 -21 141 -18 244 -35 258 -40 13 -5 18
2 22 31 4 24 2 43 -6 52 -10 13 -6 14 35 10 43 -5 47 -4 53 19 6 27 -2 63 -14
63 -5 0 -6 -11 -4 -24z"/>
<path d="M2868 1184 c-5 -4 -8 -38 -8 -76 l0 -68 64 0 c49 0 65 4 70 16 10 26
7 112 -4 119 -17 10 -114 18 -122 9z"/>
<path d="M3020 1031 l0 -68 57 -6 c31 -3 60 -4 65 -1 4 3 8 34 8 68 0 72 -5
76 -87 76 l-43 0 0 -69z"/>
<path d="M2859 1008 c-4 -50 -3 -111 1 -118 3 -5 32 -10 65 -12 l60 -3 3 73 3
72 -66 0 c-45 0 -65 -4 -66 -12z"/>
<path d="M3015 907 c-4 -13 -5 -43 -3 -68 l3 -44 65 0 65 0 3 68 3 67 -65 0
c-60 0 -66 -2 -71 -23z"/>
<path d="M2861 846 c-7 -9 -11 -38 -9 -73 l3 -58 65 0 65 0 3 66 3 66 -47 7
c-65 8 -70 8 -83 -8z"/>
<path d="M3014 756 c-3 -7 -4 -40 -2 -72 l3 -59 65 0 65 0 3 66 3 66 -47 7
c-68 9 -84 8 -90 -8z"/>
<path d="M2857 684 c-4 -4 -7 -36 -7 -70 l0 -63 55 -6 c82 -11 86 -7 83 72
l-3 68 -60 3 c-34 2 -64 0 -68 -4z"/>
<path d="M3010 530 l0 -70 65 0 c74 0 79 7 73 91 l-3 44 -67 3 -68 3 0 -71z"/>
<path d="M3560 425 c0 -56 -1 -165 -1 -241 -2 -202 -7 -184 49 -183 26 1 39 3
30 6 -34 9 -17 19 32 20 53 2 69 -13 23 -20 -16 -2 62 -4 172 -2 110 1 214 5
230 9 59 15 59 15 40 35 -11 13 -14 27 -10 40 5 17 2 21 -15 21 -16 0 -20 5
-16 15 7 19 -29 20 -67 3 -19 -9 -25 -18 -21 -30 3 -10 1 -18 -4 -18 -5 0 -12
-10 -15 -22 -8 -29 -18 -18 -19 20 -1 29 -4 31 -42 34 -26 2 -40 7 -38 16 1 8
-13 12 -50 11 -29 -1 -45 -3 -35 -6 35 -9 16 -20 -39 -22 -40 -1 -55 2 -53 11
3 28 -2 39 -18 37 -30 -3 -43 1 -43 11 0 6 7 10 15 10 9 0 15 9 15 21 0 19 -4
21 -44 15 -27 -4 -47 -3 -51 4 -9 15 40 31 74 24 40 -8 74 11 65 38 -5 17 -3
20 13 16 10 -3 25 2 32 10 12 12 11 13 -7 8 -11 -4 -23 -2 -27 4 -3 5 -18 10
-33 11 -15 0 -21 3 -14 6 23 9 12 23 -20 23 -39 0 -26 17 17 23 24 3 21 4 -12
6 -53 1 -57 21 -5 22 l37 1 -35 9 c-19 4 -43 6 -52 3 -15 -4 -18 1 -18 31 0
22 -4 34 -10 30 -5 -3 -10 1 -10 9 0 9 5 16 10 16 19 0 10 16 -10 17 -19 2
-20 -4 -20 -102z"/>
<path d="M2850 450 l0 -70 65 0 c36 0 65 3 66 8 0 4 3 25 5 47 3 22 2 50 -1
62 -5 21 -11 23 -70 23 l-65 0 0 -70z"/>
<path d="M1877 503 c-3 -5 -30 -109 -61 -233 -31 -124 -59 -235 -62 -247 -6
-23 -5 -23 99 -23 97 0 106 2 121 23 l16 22 16 -23 c14 -19 26 -22 79 -22 l62
0 -2 34 c-3 28 0 33 15 29 10 -3 21 -16 24 -29 4 -15 11 -21 21 -18 8 4 15 1
15 -5 0 -6 10 -11 23 -11 21 0 26 12 66 177 24 98 46 183 48 189 4 11 -57 31
-315 104 -153 43 -158 44 -165 33z m297 -238 c14 -3 37 0 52 5 40 15 52 -2 25
-36 -11 -15 -21 -35 -21 -45 0 -11 -4 -27 -10 -37 -5 -9 -14 -29 -20 -44 -10
-29 -40 -39 -40 -13 0 8 6 12 14 9 16 -6 49 83 34 92 -12 8 -29 -16 -24 -33 3
-6 -2 -19 -10 -30 -12 -16 -13 -16 -8 0 9 26 -3 48 -21 40 -13 -4 -15 -14 -10
-39 3 -19 3 -34 0 -34 -11 0 -44 44 -45 58 0 6 -4 12 -10 12 -21 0 -9 20 13
21 16 1 18 2 5 6 -10 2 -18 8 -18 13 0 11 43 0 52 -14 6 -8 8 -8 8 0 0 28 -69
44 -99 23 -9 -6 2 5 24 24 28 25 47 35 62 32 13 -3 34 -7 47 -10z"/>
<path d="M2688 378 c-4 -165 -8 -158 67 -158 48 0 64 4 69 16 3 9 6 67 6 129
0 128 2 125 -85 125 l-54 0 -3 -112z"/>
<path d="M3018 434 c-9 -15 -19 -189 -12 -207 5 -13 19 -17 64 -17 33 0 61 4
64 9 7 11 10 201 3 207 -9 10 -114 16 -119 8z"/>
<path d="M860 375 c0 -30 -4 -55 -8 -55 -5 0 -22 16 -39 35 -17 19 -36 35 -41
35 -19 0 -44 -71 -38 -109 19 -125 209 -119 246 7 19 67 -29 142 -91 142 -28
0 -29 -1 -29 -55z"/>
<path d="M2850 291 c0 -66 2 -71 23 -77 13 -3 41 -4 63 -2 l39 3 0 70 0 70
-62 3 -63 3 0 -70z"/>
<path d="M4039 331 c11 -7 9 -10 -10 -13 -42 -6 -34 -33 13 -49 l43 -14 -85
-5 -85 -5 120 -7 c158 -9 231 -9 258 2 21 8 21 9 2 10 -11 1 -32 1 -47 0 -16
-1 -28 3 -28 9 0 6 15 11 33 12 31 1 30 1 -11 13 -24 6 -40 14 -36 19 8 7 -9
11 -40 7 -10 -1 -35 1 -54 5 -27 5 -32 9 -21 16 10 6 2 9 -26 9 -27 0 -36 -3
-26 -9z"/>
<path d="M666 100 c-34 -11 -82 -54 -89 -81 -5 -18 2 -19 124 -19 71 0 129 3
129 8 0 15 -40 71 -57 80 -30 16 -76 21 -107 12z"/>
</g>
</svg>
